<?xml version="1.0" standalone="no"?>
<!DOCTYPE svg PUBLIC "-//W3C//DTD SVG 20010904//EN"
 "http://www.w3.org/TR/2001/REC-SVG-20010904/DTD/svg10.dtd">
<svg version="1.0" xmlns="http://www.w3.org/2000/svg"
 width="512.000000pt" height="512.000000pt" viewBox="0 0 512.000000 512.000000"
 preserveAspectRatio="xMidYMid meet">

<g transform="translate(0.000000,512.000000) scale(0.100000,-0.100000)"
fill="#000000" stroke="none">
<path d="M2330 5110 c-494 -48 -950 -230 -1350 -538 -195 -150 -448 -432 -594
-662 -63 -99 -186 -351 -230 -471 -49 -134 -102 -340 -128 -499 -31 -195 -31
-565 0 -760 45 -276 116 -498 237 -745 132 -269 269 -460 489 -681 221 -220
412 -357 681 -489 247 -121 469 -192 745 -237 195 -31 565 -31 760 0 276 45
498 116 745 237 269 132 460 269 681 489 220 221 357 412 489 681 88 179 132
296 180 476 63 240 78 371 78 649 0 278 -15 409 -78 649 -48 180 -92 297 -180
476 -132 269 -269 460 -489 681 -221 220 -412 357 -681 489 -246 121 -474 193
-740 235 -147 23 -475 34 -615 20z m540 -346 c372 -52 714 -194 1030 -428 122
-90 346 -314 436 -436 235 -317 373 -651 430 -1035 23 -162 23 -448 0 -610
-73 -495 -283 -913 -635 -1266 -353 -352 -771 -562 -1266 -635 -162 -23 -448
-23 -610 0 -495 73 -913 283 -1266 635 -352 353 -562 771 -635 1266 -23 162
-23 448 0 610 73 495 283 913 635 1266 337 337 739 545 1201 624 211 36 463
40 680 9z"/>
<path d="M2495 3753 c-11 -2 -56 -11 -100 -19 -341 -66 -654 -303 -818 -621
-311 -603 -71 -1331 539 -1632 278 -137 618 -158 909 -58 207 72 361 173 505
332 148 163 178 241 126 329 -28 47 -90 86 -139 86 -57 0 -108 -31 -154 -94
-173 -237 -401 -364 -682 -382 -225 -15 -459 72 -631 233 -155 146 -243 320
-270 536 -20 154 13 345 81 480 156 309 488 505 820 483 132 -8 236 -37 358
-98 88 -44 117 -65 195 -142 50 -50 111 -114 136 -143 55 -62 109 -82 174 -63
85 25 138 118 116 200 -13 49 -102 162 -204 258 -170 161 -390 269 -626 307
-87 14 -286 19 -335 8z"/>
</g>
</svg>
