<?xml version="1.0" standalone="no"?>
<!DOCTYPE svg PUBLIC "-//W3C//DTD SVG 20010904//EN"
 "http://www.w3.org/TR/2001/REC-SVG-20010904/DTD/svg10.dtd">
<svg version="1.0" xmlns="http://www.w3.org/2000/svg"
 width="512.000000pt" height="512.000000pt" viewBox="0 0 512.000000 512.000000"
 preserveAspectRatio="xMidYMid meet">

<g transform="translate(0.000000,512.000000) scale(0.100000,-0.100000)"
fill="#000000" stroke="none">
<path d="M512 4598 c3 -7 81 -354 173 -771 l168 -757 1281 2 1280 3 133 595
c73 327 133 596 133 598 0 1 209 2 465 2 l465 0 0 170 0 170 -2051 0 c-1637 0
-2050 -3 -2047 -12z m726 -480 l3 -148 -119 0 -119 0 -31 143 c-18 78 -32 145
-32 150 0 4 66 6 148 5 l147 -3 3 -147z m512 2 l0 -150 -130 0 -130 0 0 143
c0 79 3 147 7 150 3 4 62 7 130 7 l123 0 0 -150z m510 0 l0 -150 -125 0 -125
0 0 150 0 150 125 0 125 0 0 -150z m510 0 l0 -150 -125 0 -125 0 0 150 0 150
125 0 125 0 0 -150z m554 123 c-3 -16 -18 -82 -33 -148 l-27 -120 -117 -3
-117 -3 0 151 0 150 150 0 150 0 -6 -27z m-2086 -680 l-3 -148 -54 0 -55 0
-26 120 c-15 66 -30 132 -33 148 l-7 27 90 0 91 0 -3 -147z m512 -3 l0 -151
-127 3 -128 3 -3 148 -3 147 131 0 130 0 0 -150z m510 0 l0 -150 -125 0 -125
0 0 150 0 150 125 0 125 0 0 -150z m510 0 l0 -150 -125 0 -125 0 0 150 0 150
125 0 125 0 0 -150z m430 136 c0 -8 -13 -73 -30 -146 -16 -73 -30 -134 -30
-136 0 -2 -25 -4 -55 -4 l-55 0 0 150 0 150 85 0 c66 0 85 -3 85 -14z"/>
<path d="M512 1922 l3 -807 33 -67 c50 -103 130 -163 250 -189 l52 -11 0 -169
0 -169 130 0 129 0 9 32 c5 18 24 95 43 171 l33 137 940 -2 940 -3 41 -165 41
-165 127 -3 127 -3 0 169 0 169 57 12 c114 22 198 85 251 186 l27 50 5 390 5
390 172 88 173 87 0 170 0 170 -175 0 -175 0 0 170 0 170 -1620 0 -1621 0 3
-808z m2898 -132 l0 -600 -765 0 -765 0 0 345 0 345 -130 0 -130 0 0 -345 0
-345 -125 0 -125 0 -2 343 -3 342 -127 3 -128 3 -2 -343 -3 -343 -125 0 -125
0 -3 598 -2 597 1280 0 1280 0 0 -600z"/>
<path d="M2794 1936 c-56 -26 -118 -91 -135 -143 -6 -19 -9 -65 -7 -103 13
-242 320 -325 460 -125 68 97 57 224 -28 315 -76 81 -189 103 -290 56z"/>
</g>
</svg>
