<?xml version="1.0" standalone="no"?>
<!DOCTYPE svg PUBLIC "-//W3C//DTD SVG 20010904//EN"
 "http://www.w3.org/TR/2001/REC-SVG-20010904/DTD/svg10.dtd">
<svg version="1.0" xmlns="http://www.w3.org/2000/svg"
 width="512.000000pt" height="512.000000pt" viewBox="0 0 512.000000 512.000000"
 preserveAspectRatio="xMidYMid meet">

<g transform="translate(0.000000,512.000000) scale(0.100000,-0.100000)"
fill="#000000" stroke="none">
<path d="M2380 5114 c-19 -2 -78 -9 -130 -14 -330 -36 -695 -160 -990 -336
-375 -224 -680 -529 -904 -904 -175 -292 -291 -632 -338 -990 -16 -123 -16
-497 0 -620 82 -623 356 -1150 820 -1581 256 -239 575 -425 922 -539 274 -91
491 -124 800 -124 228 0 329 9 530 50 689 141 1304 583 1674 1204 175 292 291
632 338 990 16 123 16 497 0 620 -47 358 -163 698 -338 990 -224 375 -529 680
-904 904 -289 173 -634 291 -980 336 -88 12 -438 21 -500 14z m510 -299 c745
-113 1385 -579 1714 -1249 160 -326 230 -634 230 -1006 0 -372 -70 -680 -230
-1006 -331 -674 -965 -1134 -1724 -1251 -158 -24 -482 -24 -640 0 -504 78
-939 296 -1290 647 -351 351 -569 786 -647 1290 -24 158 -24 482 0 640 133
867 718 1569 1532 1839 191 63 328 91 560 115 80 8 393 -4 495 -19z"/>
<path d="M1580 3652 c-32 -31 -39 -47 -45 -92 -3 -30 -5 -527 -3 -1105 3 -983
4 -1052 21 -1082 51 -94 187 -95 242 -2 19 33 20 55 23 542 l3 507 739 0 739
0 3 -507 c3 -487 4 -509 23 -542 55 -93 191 -92 242 2 17 30 18 99 21 1082 2
578 0 1075 -3 1105 -6 45 -13 61 -45 92 -35 35 -42 38 -94 38 -50 0 -60 -4
-92 -33 -26 -23 -38 -45 -45 -77 -4 -25 -8 -233 -9 -462 l0 -418 -740 0 -740
0 0 418 c-1 229 -5 437 -9 462 -7 32 -19 54 -45 77 -32 29 -42 33 -92 33 -52
0 -59 -3 -94 -38z"/>
</g>
</svg>
