<?xml version="1.0" standalone="no"?>
<!DOCTYPE svg PUBLIC "-//W3C//DTD SVG 20010904//EN"
 "http://www.w3.org/TR/2001/REC-SVG-20010904/DTD/svg10.dtd">
<svg version="1.0" xmlns="http://www.w3.org/2000/svg"
 width="50.000000pt" height="50.000000pt" viewBox="0 0 50.000000 50.000000"
 preserveAspectRatio="xMidYMid meet">

<g transform="translate(0.000000,50.000000) scale(0.100000,-0.100000)"
fill="#000000" stroke="none">
<path d="M70 423 c-16 -25 -33 -62 -36 -81 -8 -43 10 -107 36 -125 11 -8 23
-28 26 -45 4 -18 11 -32 17 -32 6 0 6 15 1 43 -5 23 -9 77 -9 120 0 65 -2 75
-12 60 -7 -9 -13 -42 -13 -72 -1 -54 -1 -55 -15 -31 -8 14 -14 39 -15 56 0 33
39 115 58 122 6 2 21 -16 33 -41 24 -49 21 -105 -6 -127 -8 -7 -15 -19 -15
-27 0 -13 3 -13 16 -2 29 24 46 71 41 111 -5 41 -50 118 -67 118 -6 0 -24 -21
-40 -47z"/>
<path d="M213 281 c-46 -21 -70 -58 -76 -113 -2 -19 -14 -49 -26 -67 -36 -51
-15 -49 30 3 52 59 102 85 179 93 40 4 58 9 51 16 -15 15 -116 -2 -166 -28
l-45 -24 0 22 c0 51 63 97 132 97 41 0 136 -43 145 -65 8 -23 -61 -91 -114
-111 -41 -16 -83 -15 -140 2 -13 3 -23 2 -23 -3 0 -12 67 -33 102 -33 62 0
136 43 185 107 l27 36 -33 28 c-39 32 -110 59 -155 59 -17 0 -50 -9 -73 -19z"/>
</g>
</svg>
